<svg xmlns="http://www.w3.org/2000/svg" width="800" height="410" style="display:block;background:#111">
<rect x="0" y="0" width="800" height="10" fill="#1a1a1a"/>
<text x="6" y="5" dominant-baseline="middle" font-family="monospace,Consolas,Courier New" font-size="11" fill="#9a9a9a">BEDROOM 3D  frame:10  yaw:0.0  pitch:0.0  pos:(0.00, 1.60, 0.00)</text>
<rect x="0" y="10" width="800" height="5" fill="#05050f"/>
<rect x="0" y="15" width="800" height="5" fill="#05050f"/>
<rect x="0" y="20" width="800" height="5" fill="#05050f"/>
<rect x="0" y="25" width="800" height="5" fill="#05050f"/>
<rect x="0" y="30" width="800" height="5" fill="#05050f"/>
<rect x="0" y="35" width="800" height="5" fill="#05050f"/>
<rect x="0" y="40" width="800" height="5" fill="#05050f"/>
<rect x="0" y="45" width="800" height="5" fill="#05050f"/>
<rect x="0" y="50" width="800" height="5" fill="#05050f"/>
<rect x="0" y="55" width="800" height="5" fill="#05050f"/>
<rect x="0" y="60" width="800" height="5" fill="#05050f"/>
<rect x="0" y="65" width="800" height="5" fill="#05050f"/>
<rect x="0" y="70" width="800" height="5" fill="#05050f"/>
<rect x="0" y="75" width="800" height="5" fill="#05050f"/>
<rect x="0" y="80" width="800" height="5" fill="#05050f"/>
<rect x="0" y="85" width="800" height="5" fill="#05050f"/>
<rect x="0" y="90" width="800" height="5" fill="#05050f"/>
<rect x="0" y="95" width="800" height="5" fill="#05050f"/>
<rect x="0" y="100" width="800" height="5" fill="#05050f"/>
<rect x="0" y="105" width="800" height="5" fill="#05050f"/>
<rect x="0" y="110" width="800" height="5" fill="#05050f"/>
<rect x="0" y="115" width="800" height="5" fill="#05050f"/>
<rect x="0" y="120" width="800" height="5" fill="#05050f"/>
<rect x="0" y="125" width="800" height="5" fill="#05050f"/>
<rect x="0" y="130" width="800" height="5" fill="#05050f"/>
<rect x="0" y="135" width="800" height="5" fill="#05050f"/>
<rect x="0" y="140" width="800" height="5" fill="#05050f"/>
<rect x="0" y="145" width="800" height="5" fill="#05050f"/>
<rect x="0" y="150" width="800" height="5" fill="#05050f"/>
<rect x="0" y="155" width="800" height="5" fill="#05050f"/>
<rect x="0" y="160" width="800" height="5" fill="#05050f"/>
<rect x="0" y="165" width="800" height="5" fill="#05050f"/>
<rect x="0" y="170" width="800" height="5" fill="#05050f"/>
<rect x="0" y="175" width="800" height="5" fill="#05050f"/>
<rect x="0" y="180" width="800" height="5" fill="#05050f"/>
<rect x="0" y="185" width="800" height="5" fill="#05050f"/>
<rect x="0" y="190" width="800" height="5" fill="#05050f"/>
<rect x="0" y="195" width="800" height="5" fill="#05050f"/>
<rect x="0" y="200" width="800" height="5" fill="#05050f"/>
<rect x="0" y="205" width="800" height="5" fill="#05050f"/>
<rect x="0" y="210" width="800" height="5" fill="#05050f"/>
<rect x="0" y="215" width="800" height="5" fill="#05050f"/>
<rect x="0" y="220" width="800" height="5" fill="#05050f"/>
<rect x="0" y="225" width="800" height="5" fill="#05050f"/>
<rect x="0" y="230" width="800" height="5" fill="#05050f"/>
<rect x="0" y="235" width="800" height="5" fill="#05050f"/>
<rect x="0" y="240" width="800" height="5" fill="#05050f"/>
<rect x="0" y="245" width="800" height="5" fill="#05050f"/>
<rect x="0" y="250" width="800" height="5" fill="#05050f"/>
<rect x="0" y="255" width="800" height="5" fill="#05050f"/>
<rect x="0" y="260" width="800" height="5" fill="#05050f"/>
<rect x="0" y="265" width="285" height="5" fill="#05050f"/>
<rect x="285" y="265" width="40" height="5" fill="#fb8cff"/>
<rect x="325" y="265" width="475" height="5" fill="#05050f"/>
<rect x="0" y="270" width="270" height="5" fill="#05050f"/>
<rect x="270" y="270" width="55" height="5" fill="#fb8cff"/>
<rect x="325" y="270" width="75" height="5" fill="#05050f"/>
<rect x="400" y="270" width="5" height="5" fill="#9da1a4"/>
<rect x="405" y="270" width="395" height="5" fill="#05050f"/>
<rect x="0" y="275" width="260" height="5" fill="#05050f"/>
<rect x="260" y="275" width="65" height="5" fill="#fb8cff"/>
<rect x="325" y="275" width="75" height="5" fill="#05050f"/>
<rect x="400" y="275" width="5" height="5" fill="#9c9fa3"/>
<rect x="405" y="275" width="395" height="5" fill="#05050f"/>
<rect x="0" y="280" width="250" height="5" fill="#05050f"/>
<rect x="250" y="280" width="75" height="5" fill="#fb8cff"/>
<rect x="325" y="280" width="30" height="5" fill="#05050f"/>
<rect x="355" y="280" width="20" height="5" fill="#8cffff"/>
<rect x="375" y="280" width="25" height="5" fill="#05050f"/>
<rect x="400" y="280" width="5" height="5" fill="#9a9ea1"/>
<rect x="405" y="280" width="395" height="5" fill="#05050f"/>
<rect x="0" y="285" width="240" height="5" fill="#05050f"/>
<rect x="240" y="285" width="85" height="5" fill="#fb8cff"/>
<rect x="325" y="285" width="25" height="5" fill="#05050f"/>
<rect x="350" y="285" width="25" height="5" fill="#8cffff"/>
<rect x="375" y="285" width="425" height="5" fill="#05050f"/>
<rect x="0" y="290" width="230" height="5" fill="#05050f"/>
<rect x="230" y="290" width="95" height="5" fill="#fb8cff"/>
<rect x="325" y="290" width="25" height="5" fill="#05050f"/>
<rect x="350" y="290" width="25" height="5" fill="#8cffff"/>
<rect x="375" y="290" width="110" height="5" fill="#05050f"/>
<rect x="485" y="290" width="5" height="5" fill="#777a7c"/>
<rect x="490" y="290" width="5" height="5" fill="#75787b"/>
<rect x="495" y="290" width="305" height="5" fill="#05050f"/>
<rect x="0" y="295" width="220" height="5" fill="#05050f"/>
<rect x="220" y="295" width="105" height="5" fill="#fb8cff"/>
<rect x="325" y="295" width="20" height="5" fill="#05050f"/>
<rect x="345" y="295" width="30" height="5" fill="#8cffff"/>
<rect x="375" y="295" width="110" height="5" fill="#05050f"/>
<rect x="485" y="295" width="5" height="5" fill="#686a6c"/>
<rect x="490" y="295" width="5" height="5" fill="#6a6c6f"/>
<rect x="495" y="295" width="5" height="5" fill="#777a7d"/>
<rect x="500" y="295" width="300" height="5" fill="#05050f"/>
<rect x="0" y="300" width="205" height="5" fill="#05050f"/>
<rect x="205" y="300" width="120" height="5" fill="#fb8cff"/>
<rect x="325" y="300" width="15" height="5" fill="#05050f"/>
<rect x="340" y="300" width="35" height="5" fill="#8cffff"/>
<rect x="375" y="300" width="110" height="5" fill="#05050f"/>
<rect x="485" y="300" width="5" height="5" fill="#67696c"/>
<rect x="490" y="300" width="5" height="5" fill="#696b6e"/>
<rect x="495" y="300" width="5" height="5" fill="#686b6d"/>
<rect x="500" y="300" width="300" height="5" fill="#05050f"/>
<rect x="0" y="305" width="205" height="5" fill="#05050f"/>
<rect x="205" y="305" width="120" height="5" fill="#fb8cff"/>
<rect x="325" y="305" width="15" height="5" fill="#05050f"/>
<rect x="340" y="305" width="35" height="5" fill="#8cffff"/>
<rect x="375" y="305" width="110" height="5" fill="#05050f"/>
<rect x="485" y="305" width="5" height="5" fill="#66696b"/>
<rect x="490" y="305" width="5" height="5" fill="#686b6d"/>
<rect x="495" y="305" width="5" height="5" fill="#686a6c"/>
<rect x="500" y="305" width="300" height="5" fill="#05050f"/>
<rect x="0" y="310" width="205" height="5" fill="#05050f"/>
<rect x="205" y="310" width="120" height="5" fill="#fb8cff"/>
<rect x="325" y="310" width="15" height="5" fill="#05050f"/>
<rect x="340" y="310" width="35" height="5" fill="#8cffff"/>
<rect x="375" y="310" width="115" height="5" fill="#05050f"/>
<rect x="490" y="310" width="5" height="5" fill="#686a6c"/>
<rect x="495" y="310" width="5" height="5" fill="#67696c"/>
<rect x="500" y="310" width="300" height="5" fill="#05050f"/>
<rect x="0" y="315" width="205" height="5" fill="#05050f"/>
<rect x="205" y="315" width="120" height="5" fill="#fb8cff"/>
<rect x="325" y="315" width="15" height="5" fill="#05050f"/>
<rect x="340" y="315" width="35" height="5" fill="#8cffff"/>
<rect x="375" y="315" width="25" height="5" fill="#05050f"/>
<rect x="400" y="315" width="15" height="5" fill="#fffb70"/>
<rect x="415" y="315" width="385" height="5" fill="#05050f"/>
<rect x="0" y="320" width="205" height="5" fill="#05050f"/>
<rect x="205" y="320" width="120" height="5" fill="#fb8cff"/>
<rect x="325" y="320" width="15" height="5" fill="#05050f"/>
<rect x="340" y="320" width="35" height="5" fill="#8cffff"/>
<rect x="375" y="320" width="25" height="5" fill="#05050f"/>
<rect x="400" y="320" width="15" height="5" fill="#fffb70"/>
<rect x="415" y="320" width="385" height="5" fill="#05050f"/>
<rect x="0" y="325" width="205" height="5" fill="#05050f"/>
<rect x="205" y="325" width="120" height="5" fill="#fb8cff"/>
<rect x="325" y="325" width="15" height="5" fill="#05050f"/>
<rect x="340" y="325" width="35" height="5" fill="#8cffff"/>
<rect x="375" y="325" width="25" height="5" fill="#05050f"/>
<rect x="400" y="325" width="15" height="5" fill="#fffb70"/>
<rect x="415" y="325" width="20" height="5" fill="#05050f"/>
<rect x="435" y="325" width="35" height="5" fill="#8cffd2"/>
<rect x="470" y="325" width="330" height="5" fill="#05050f"/>
<rect x="0" y="330" width="205" height="5" fill="#05050f"/>
<rect x="205" y="330" width="120" height="5" fill="#fb8cff"/>
<rect x="325" y="330" width="15" height="5" fill="#05050f"/>
<rect x="340" y="330" width="35" height="5" fill="#8cffff"/>
<rect x="375" y="330" width="25" height="5" fill="#05050f"/>
<rect x="400" y="330" width="15" height="5" fill="#fffb70"/>
<rect x="415" y="330" width="20" height="5" fill="#05050f"/>
<rect x="435" y="330" width="35" height="5" fill="#8cffd2"/>
<rect x="470" y="330" width="330" height="5" fill="#05050f"/>
<rect x="0" y="335" width="205" height="5" fill="#05050f"/>
<rect x="205" y="335" width="120" height="5" fill="#fb8cff"/>
<rect x="325" y="335" width="15" height="5" fill="#05050f"/>
<rect x="340" y="335" width="35" height="5" fill="#8cffff"/>
<rect x="375" y="335" width="25" height="5" fill="#05050f"/>
<rect x="400" y="335" width="15" height="5" fill="#fffb70"/>
<rect x="415" y="335" width="20" height="5" fill="#05050f"/>
<rect x="435" y="335" width="40" height="5" fill="#8cffd2"/>
<rect x="475" y="335" width="325" height="5" fill="#05050f"/>
<rect x="0" y="340" width="205" height="5" fill="#05050f"/>
<rect x="205" y="340" width="120" height="5" fill="#fb8cff"/>
<rect x="325" y="340" width="15" height="5" fill="#05050f"/>
<rect x="340" y="340" width="35" height="5" fill="#8cffff"/>
<rect x="375" y="340" width="25" height="5" fill="#05050f"/>
<rect x="400" y="340" width="15" height="5" fill="#fffb70"/>
<rect x="415" y="340" width="20" height="5" fill="#05050f"/>
<rect x="435" y="340" width="40" height="5" fill="#8cffd2"/>
<rect x="475" y="340" width="325" height="5" fill="#05050f"/>
<rect x="0" y="345" width="205" height="5" fill="#05050f"/>
<rect x="205" y="345" width="120" height="5" fill="#fb8cff"/>
<rect x="325" y="345" width="15" height="5" fill="#05050f"/>
<rect x="340" y="345" width="30" height="5" fill="#8cffff"/>
<rect x="370" y="345" width="30" height="5" fill="#05050f"/>
<rect x="400" y="345" width="15" height="5" fill="#fffb70"/>
<rect x="415" y="345" width="20" height="5" fill="#05050f"/>
<rect x="435" y="345" width="45" height="5" fill="#8cffd2"/>
<rect x="480" y="345" width="320" height="5" fill="#05050f"/>
<rect x="0" y="350" width="205" height="5" fill="#05050f"/>
<rect x="205" y="350" width="115" height="5" fill="#fb8cff"/>
<rect x="320" y="350" width="20" height="5" fill="#05050f"/>
<rect x="340" y="350" width="30" height="5" fill="#8cffff"/>
<rect x="370" y="350" width="30" height="5" fill="#05050f"/>
<rect x="400" y="350" width="15" height="5" fill="#fffb70"/>
<rect x="415" y="350" width="20" height="5" fill="#05050f"/>
<rect x="435" y="350" width="50" height="5" fill="#8cffd2"/>
<rect x="485" y="350" width="315" height="5" fill="#05050f"/>
<rect x="0" y="355" width="205" height="5" fill="#05050f"/>
<rect x="205" y="355" width="115" height="5" fill="#fb8cff"/>
<rect x="320" y="355" width="20" height="5" fill="#05050f"/>
<rect x="340" y="355" width="30" height="5" fill="#8cffff"/>
<rect x="370" y="355" width="30" height="5" fill="#05050f"/>
<rect x="400" y="355" width="15" height="5" fill="#fffb70"/>
<rect x="415" y="355" width="20" height="5" fill="#05050f"/>
<rect x="435" y="355" width="50" height="5" fill="#8cffd2"/>
<rect x="485" y="355" width="315" height="5" fill="#05050f"/>
<rect x="0" y="360" width="205" height="5" fill="#05050f"/>
<rect x="205" y="360" width="110" height="5" fill="#fb8cff"/>
<rect x="315" y="360" width="25" height="5" fill="#05050f"/>
<rect x="340" y="360" width="30" height="5" fill="#8cffff"/>
<rect x="370" y="360" width="30" height="5" fill="#05050f"/>
<rect x="400" y="360" width="15" height="5" fill="#fffb70"/>
<rect x="415" y="360" width="20" height="5" fill="#05050f"/>
<rect x="435" y="360" width="55" height="5" fill="#8cffd2"/>
<rect x="490" y="360" width="310" height="5" fill="#05050f"/>
<rect x="0" y="365" width="205" height="5" fill="#05050f"/>
<rect x="205" y="365" width="110" height="5" fill="#fb8cff"/>
<rect x="315" y="365" width="120" height="5" fill="#05050f"/>
<rect x="435" y="365" width="55" height="5" fill="#8cffd2"/>
<rect x="490" y="365" width="310" height="5" fill="#05050f"/>
<rect x="0" y="370" width="205" height="5" fill="#05050f"/>
<rect x="205" y="370" width="105" height="5" fill="#fb8cff"/>
<rect x="310" y="370" width="125" height="5" fill="#05050f"/>
<rect x="435" y="370" width="60" height="5" fill="#8cffd2"/>
<rect x="495" y="370" width="305" height="5" fill="#05050f"/>
<rect x="0" y="375" width="205" height="5" fill="#05050f"/>
<rect x="205" y="375" width="105" height="5" fill="#fb8cff"/>
<rect x="310" y="375" width="125" height="5" fill="#05050f"/>
<rect x="435" y="375" width="60" height="5" fill="#8cffd2"/>
<rect x="495" y="375" width="305" height="5" fill="#05050f"/>
<rect x="0" y="380" width="205" height="5" fill="#05050f"/>
<rect x="205" y="380" width="100" height="5" fill="#fb8cff"/>
<rect x="305" y="380" width="130" height="5" fill="#05050f"/>
<rect x="435" y="380" width="65" height="5" fill="#8cffd2"/>
<rect x="500" y="380" width="300" height="5" fill="#05050f"/>
<rect x="0" y="385" width="205" height="5" fill="#05050f"/>
<rect x="205" y="385" width="95" height="5" fill="#fb8cff"/>
<rect x="300" y="385" width="135" height="5" fill="#05050f"/>
<rect x="435" y="385" width="70" height="5" fill="#8cffd2"/>
<rect x="505" y="385" width="295" height="5" fill="#05050f"/>
<rect x="0" y="390" width="205" height="5" fill="#05050f"/>
<rect x="205" y="390" width="95" height="5" fill="#fb8cff"/>
<rect x="300" y="390" width="135" height="5" fill="#05050f"/>
<rect x="435" y="390" width="70" height="5" fill="#8cffd2"/>
<rect x="505" y="390" width="295" height="5" fill="#05050f"/>
<rect x="0" y="395" width="205" height="5" fill="#05050f"/>
<rect x="205" y="395" width="90" height="5" fill="#fb8cff"/>
<rect x="295" y="395" width="140" height="5" fill="#05050f"/>
<rect x="435" y="395" width="70" height="5" fill="#8cffd2"/>
<rect x="505" y="395" width="295" height="5" fill="#05050f"/>
<rect x="0" y="400" width="205" height="5" fill="#05050f"/>
<rect x="205" y="400" width="90" height="5" fill="#fb8cff"/>
<rect x="295" y="400" width="140" height="5" fill="#05050f"/>
<rect x="435" y="400" width="70" height="5" fill="#8cffd2"/>
<rect x="505" y="400" width="295" height="5" fill="#05050f"/>
<rect x="0" y="405" width="205" height="5" fill="#05050f"/>
<rect x="205" y="405" width="85" height="5" fill="#fb8cff"/>
<rect x="290" y="405" width="145" height="5" fill="#05050f"/>
<rect x="435" y="405" width="70" height="5" fill="#8cffd2"/>
<rect x="505" y="405" width="295" height="5" fill="#05050f"/>
</svg>